<?xml version="1.0" encoding="utf-8"?>
<!DOCTYPE svg PUBLIC "-//W3C//DTD SVG 1.1//EN" "http://www.w3.org/Graphics/SVG/1.1/DTD/svg11.dtd">
<svg xmlns="http://www.w3.org/2000/svg" x="0px" y="0px"
width="96" height="96"
viewBox="0 0 172 172"
style=" fill:#000000;"><g fill="none" fill-rule="nonzero" stroke="none" stroke-width="1" stroke-linecap="butt" stroke-linejoin="miter" stroke-miterlimit="10" stroke-dasharray="" stroke-dashoffset="0" font-family="none" font-weight="none" font-size="none" text-anchor="none" style="mix-blend-mode: normal"><path d="M0,172v-172h172v172z" fill="none"></path><path d="M0,86c0,-47.49649 38.50351,-86 86,-86c47.49649,0 86,38.50351 86,86c0,47.49649 -38.50351,86 -86,86c-47.49649,0 -86,-38.50351 -86,-86zM86,168.56c45.59663,0 82.56,-36.96337 82.56,-82.56c0,-45.59663 -36.96337,-82.56 -82.56,-82.56c-45.59663,0 -82.56,36.96337 -82.56,82.56c0,45.59663 36.96337,82.56 82.56,82.56z" fill="#ffffff"></path><g><path d="M63.06667,54.46667h45.86667v43h-45.86667z" fill="#bf360c"></path><path d="M111.8,51.6c0,-21.89273 -51.6,-14.25593 -51.6,0v20.06667c0,14.25593 11.54407,25.8 25.8,25.8c14.25593,0 25.8,-11.54407 25.8,-25.8z" fill="#ffb74d"></path><path d="M94.6,68.8c0,1.57953 1.28713,2.86667 2.86667,2.86667c1.57953,0 2.86667,-1.28713 2.86667,-2.86667c0,-1.57953 -1.28713,-2.86667 -2.86667,-2.86667c-1.57953,0 -2.86667,1.28713 -2.86667,2.86667M71.66667,68.8c0,1.57953 1.28713,2.86667 2.86667,2.86667c1.57953,0 2.86667,-1.28713 2.86667,-2.86667c0,-1.57953 -1.28713,-2.86667 -2.86667,-2.86667c-1.57953,0 -2.86667,1.28713 -2.86667,2.86667" fill="#784719"></path><path d="M86,25.8c-17.41213,0 -43,9.07013 -43,60.2l20.06667,11.46667v-31.53333l34.4,-20.06667l11.46667,14.33333v37.26667l20.06667,-14.33333c0,-8.084 -1.93787,-51.6 -31.53333,-51.6l-2.86667,-5.73333z" fill="#000000"></path><path d="M134.73333,146.2h-97.46667c-1.57953,0 -2.86667,-1.28713 -2.86667,-2.86667v-63.06667c0,-1.57953 1.28713,-2.86667 2.86667,-2.86667h97.46667c1.57953,0 2.86667,1.28713 2.86667,2.86667v63.06667c0,1.57953 -1.28713,2.86667 -2.86667,2.86667z" fill="#95a5a6"></path><path d="M94.6,111.8c0,4.7472 -3.8528,8.6 -8.6,8.6c-4.7472,0 -8.6,-3.8528 -8.6,-8.6c0,-4.7472 3.8528,-8.6 8.6,-8.6c4.7472,0 8.6,3.8528 8.6,8.6z" fill="#b0bec5"></path></g><path d="M86,172c-47.49649,0 -86,-38.50351 -86,-86v0c0,-47.49649 38.50351,-86 86,-86v0c47.49649,0 86,38.50351 86,86v0c0,47.49649 -38.50351,86 -86,86z" fill="none"></path><path d="M86,168.56c-45.59663,0 -82.56,-36.96337 -82.56,-82.56v0c0,-45.59663 36.96337,-82.56 82.56,-82.56v0c45.59663,0 82.56,36.96337 82.56,82.56v0c0,45.59663 -36.96337,82.56 -82.56,82.56z" fill="none"></path><path d="M86,172c-47.49649,0 -86,-38.50351 -86,-86v0c0,-47.49649 38.50351,-86 86,-86v0c47.49649,0 86,38.50351 86,86v0c0,47.49649 -38.50351,86 -86,86z" fill="none"></path><path d="M86,168.56c-45.59663,0 -82.56,-36.96337 -82.56,-82.56v0c0,-45.59663 36.96337,-82.56 82.56,-82.56v0c45.59663,0 82.56,36.96337 82.56,82.56v0c0,45.59663 -36.96337,82.56 -82.56,82.56z" fill="none"></path><path d="M86,172c-47.49649,0 -86,-38.50351 -86,-86v0c0,-47.49649 38.50351,-86 86,-86v0c47.49649,0 86,38.50351 86,86v0c0,47.49649 -38.50351,86 -86,86z" fill="none"></path><path d="M86,168.56c-45.59663,0 -82.56,-36.96337 -82.56,-82.56v0c0,-45.59663 36.96337,-82.56 82.56,-82.56v0c45.59663,0 82.56,36.96337 82.56,82.56v0c0,45.59663 -36.96337,82.56 -82.56,82.56z" fill="none"></path></g></svg>