<?xml version="1.0" encoding="utf-8"?>
<!DOCTYPE svg PUBLIC "-//W3C//DTD SVG 1.1//EN" "http://www.w3.org/Graphics/SVG/1.1/DTD/svg11.dtd">
<svg xmlns="http://www.w3.org/2000/svg" x="0px" y="0px"
width="48" height="48"
viewBox="0 0 172 172"
style=" fill:#000000;"><g fill="none" fill-rule="nonzero" stroke="none" stroke-width="1" stroke-linecap="butt" stroke-linejoin="miter" stroke-miterlimit="10" stroke-dasharray="" stroke-dashoffset="0" font-family="none" font-weight="none" font-size="none" text-anchor="none" style="mix-blend-mode: normal"><path d="M0,172v-172h172v172z" fill="none"></path><g fill="#ffffff"><path d="M136.16667,21.5h-100.33333c-7.91917,0 -14.33333,6.41417 -14.33333,14.33333v100.33333c0,7.91917 6.41417,14.33333 14.33333,14.33333h100.33333c7.91917,0 14.33333,-6.41417 14.33333,-14.33333v-100.33333c0,-7.91917 -6.41417,-14.33333 -14.33333,-14.33333zM55.45567,121.83333v0c-4.99517,0 -9.04433,-4.04917 -9.04433,-9.04433v-32.08517c0.00717,-4.988 4.05633,-9.03717 9.04433,-9.03717v0c4.99517,0 9.04433,4.04917 9.04433,9.04433v32.08517c0,4.988 -4.04917,9.03717 -9.04433,9.03717zM55.14033,62.47183c-5.5255,0 -9.21633,-3.68367 -9.21633,-8.6c0,-4.91633 3.68367,-8.6 9.8255,-8.6c5.5255,0 9.21633,3.68367 9.21633,8.6c0,4.91633 -3.68367,8.6 -9.8255,8.6zM120.2495,121.83333v0c-4.83033,0 -8.7505,-3.92017 -8.7505,-8.7505v-18.66917c0,-7.58233 -4.6655,-8.41367 -6.41417,-8.41367c-1.74867,0 -7.58233,0.25083 -7.58233,8.41367v18.66917c0,4.83033 -3.92017,8.7505 -8.7505,8.7505h-0.5805c-4.83033,0 -8.7505,-3.92017 -8.7505,-8.7505v-32.37183c0,-4.99517 4.04917,-9.04433 9.04433,-9.04433v0c4.99517,0 9.04433,4.04917 9.04433,9.04433c0,0 2.021,-9.04433 15.75233,-9.04433c8.73617,0 15.738,7.00183 15.738,22.747v18.66917c0,4.83033 -3.92017,8.7505 -8.7505,8.7505z"></path></g></g></svg>